<svg aria-hidden="true" style="position: absolute; width: 0; height: 0; overflow: hidden;" version="1.1" xmlns="http://www.w3.org/2000/svg" xmlns:xlink="http://www.w3.org/1999/xlink">
<defs>
<symbol id="icon-close" viewBox="0 0 32 32">
<path stroke-linejoin="round" stroke-linecap="round" stroke-miterlimit="4" stroke-width="2.2857" d="M24 8l-16 16"></path>
<path stroke-linejoin="round" stroke-linecap="round" stroke-miterlimit="4" stroke-width="2.2857" d="M8 8l16 16"></path>
</symbol>
<symbol id="icon-attachment" viewBox="0 0 32 32">
<path d="M28.1 18.9l-15-15c-2.5-2.6-6.6-2.6-9.2-0.1s-2.6 6.7 0 9.2l0.1 0.1 2.8 2.9 1.4-1.4-2.9-2.9c-1.7-1.7-1.7-4.6 0-6.3s4.6-1.8 6.3-0.1l15 15c1.8 1.7 1.8 4.6 0.1 6.3-1.7 1.8-4.6 1.8-6.3 0.1l-0.1-0.1-7.4-7.4c-1-1-0.9-2.6 0-3.5 0.479-0.434 1.103-0.675 1.75-0.675s1.271 0.241 1.75 0.675l4.1 4.1 1.4-1.4-4.2-4.2c-0.426-0.403-0.927-0.717-1.475-0.925s-1.131-0.306-1.717-0.287c-0.586 0.019-1.162 0.153-1.695 0.395s-1.014 0.588-1.413 1.017c-1.6 1.7-1.6 4.4 0 6.2l7.5 7.5c2.5 2.6 6.6 2.6 9.2 0.1s2.6-6.7 0-9.3c0 0.1 0 0 0 0z"></path>
</symbol>
<symbol id="icon-visibility" viewBox="0 0 32 32">
<path stroke-linejoin="round" stroke-linecap="round" stroke-miterlimit="4" stroke-width="1.3333" d="M18.827 18.827c-0.366 0.393-0.808 0.708-1.298 0.927s-1.020 0.336-1.557 0.346-1.071-0.089-1.569-0.291c-0.498-0.201-0.951-0.501-1.33-0.881s-0.679-0.832-0.88-1.33c-0.201-0.498-0.3-1.032-0.29-1.569s0.127-1.067 0.346-1.557c0.219-0.491 0.534-0.932 0.927-1.298M23.92 23.92c-2.279 1.737-5.055 2.7-7.92 2.747-9.333 0-14.667-10.667-14.667-10.667 1.659-3.091 3.959-5.791 6.747-7.92l15.84 15.84zM13.2 5.653c0.918-0.215 1.857-0.322 2.8-0.32 9.333 0 14.667 10.667 14.667 10.667-0.809 1.514-1.775 2.94-2.88 4.253l-14.587-14.6z"></path>
<path stroke-linejoin="round" stroke-linecap="round" stroke-miterlimit="4" stroke-width="1.3333" d="M1.333 1.333l29.333 29.333"></path>
</symbol>
<symbol id="icon-map-pin" viewBox="0 0 31 32">
<path d="M15.619 0.032c-1.662-0.078-3.321 0.192-4.872 0.792s-2.96 1.518-4.136 2.694-2.094 2.585-2.694 4.136c-0.6 1.551-0.87 3.211-0.792 4.872 0 3.936 3.124 7.81 4.686 9.371s7.81 9.371 7.81 9.371c0 0 6.248-7.81 7.81-9.371s4.686-5.435 4.686-9.371c0.078-1.662-0.192-3.321-0.792-4.872s-1.518-2.96-2.694-4.136c-1.176-1.176-2.585-2.094-4.136-2.694s-3.211-0.87-4.872-0.792zM15.619 17.604c-1.004 0-1.985-0.298-2.82-0.855s-1.485-1.351-1.87-2.278-0.485-1.948-0.289-2.933c0.196-0.985 0.679-1.889 1.389-2.599s1.614-1.193 2.599-1.389 2.005-0.095 2.933 0.289c0.928 0.384 1.72 1.035 2.278 1.87s0.855 1.816 0.855 2.82c0 0.667-0.131 1.327-0.386 1.943s-0.629 1.175-1.1 1.647c-0.471 0.471-1.031 0.845-1.647 1.1s-1.276 0.386-1.943 0.386z"></path>
</symbol>
<symbol id="icon-log-out" viewBox="0 0 32 32">
<path stroke-linejoin="round" stroke-linecap="round" stroke-miterlimit="4" stroke-width="3.5556" d="M21.333 22.667l6.667-6.667M28 16l-6.667-6.667M28 16h-16M12 4h-1.6c-2.24 0-3.36 0-4.216 0.436-0.753 0.383-1.365 0.995-1.748 1.748-0.436 0.856-0.436 1.976-0.436 4.216v11.2c0 2.24 0 3.36 0.436 4.216 0.383 0.753 0.995 1.364 1.748 1.748 0.856 0.436 1.976 0.436 4.216 0.436h1.6"></path>
</symbol>
<symbol id="icon-delete" viewBox="0 0 32 32">
<path stroke-linejoin="round" stroke-linecap="round" stroke-miterlimit="4" stroke-width="2.6" d="M12 4h8"></path>
<path stroke-linejoin="round" stroke-linecap="round" stroke-miterlimit="4" stroke-width="2.6" d="M4 8h24"></path>
<path stroke-linejoin="round" stroke-linecap="round" stroke-miterlimit="4" stroke-width="2.6" d="M6.667 8l0.801 12.018c0.149 2.231 0.223 3.347 0.588 4.243 0.662 1.627 2.004 2.883 3.672 3.435 0.919 0.304 2.037 0.304 4.273 0.304v0c2.236 0 3.354 0 4.273-0.304 1.668-0.552 3.010-1.808 3.672-3.435 0.365-0.896 0.439-2.012 0.588-4.243l0.801-12.018"></path>
</symbol>
<symbol id="icon-edit" viewBox="0 0 32 32">
<path stroke-linejoin="round" stroke-linecap="round" stroke-miterlimit="4" stroke-width="2.6" d="M3.333 28.667l7.399-2.846c0.473-0.182 0.71-0.273 0.931-0.392 0.197-0.106 0.384-0.227 0.56-0.364 0.199-0.154 0.378-0.333 0.736-0.692l15.040-15.040c1.473-1.473 1.473-3.861 0-5.333s-3.861-1.473-5.333 0l-15.040 15.040c-0.359 0.359-0.538 0.538-0.692 0.736-0.137 0.176-0.259 0.364-0.364 0.56-0.119 0.221-0.21 0.458-0.392 0.931l-2.846 7.399zM3.333 28.667l2.744-7.135c0.196-0.511 0.295-0.766 0.463-0.883 0.147-0.102 0.329-0.141 0.505-0.107 0.201 0.038 0.395 0.232 0.782 0.619l3.012 3.012c0.387 0.387 0.58 0.58 0.619 0.782 0.034 0.176-0.005 0.358-0.107 0.505-0.117 0.168-0.372 0.267-0.883 0.463l-7.135 2.744z"></path>
</symbol>
</defs>
</svg>
